<mxfile host="app.diagrams.net" modified="2022-12-13T05:09:17.801Z" agent="5.0 (Windows NT 10.0; Win64; x64) AppleWebKit/537.36 (KHTML, like Gecko) Chrome/108.0.0.0 Safari/537.36" etag="HQuuHJ0sshhdPyMP4m5f" version="20.4.0" type="github">
  <diagram id="dZhL1O7CvkkH2VWUVcpO" name="페이지-1">
    <mxGraphModel dx="1247" dy="625" grid="1" gridSize="10" guides="1" tooltips="1" connect="1" arrows="1" fold="1" page="1" pageScale="1" pageWidth="1169" pageHeight="827" math="0" shadow="0">
      <root>
        <mxCell id="0" />
        <mxCell id="1" parent="0" />
        <mxCell id="sNdHplppjl8J4mJ22e9B-1" value="회원" style="shape=umlActor;verticalLabelPosition=bottom;verticalAlign=top;html=1;outlineConnect=0;" parent="1" vertex="1">
          <mxGeometry x="20" y="450" width="30" height="60" as="geometry" />
        </mxCell>
        <mxCell id="sNdHplppjl8J4mJ22e9B-2" value="관리자" style="shape=umlActor;verticalLabelPosition=bottom;verticalAlign=top;html=1;outlineConnect=0;" parent="1" vertex="1">
          <mxGeometry x="1060" y="454" width="30" height="60" as="geometry" />
        </mxCell>
        <mxCell id="sNdHplppjl8J4mJ22e9B-12" value="캠핑장 검색" style="ellipse;whiteSpace=wrap;html=1;" parent="1" vertex="1">
          <mxGeometry x="280" y="30" width="120" height="80" as="geometry" />
        </mxCell>
        <mxCell id="sNdHplppjl8J4mJ22e9B-13" value="캠핑장 예약" style="ellipse;whiteSpace=wrap;html=1;" parent="1" vertex="1">
          <mxGeometry x="240" y="316" width="120" height="80" as="geometry" />
        </mxCell>
        <mxCell id="sNdHplppjl8J4mJ22e9B-14" value="리뷰등록" style="ellipse;whiteSpace=wrap;html=1;" parent="1" vertex="1">
          <mxGeometry x="290" y="396" width="120" height="80" as="geometry" />
        </mxCell>
        <mxCell id="sNdHplppjl8J4mJ22e9B-15" value="고객정보수정" style="ellipse;whiteSpace=wrap;html=1;" parent="1" vertex="1">
          <mxGeometry x="240" y="566" width="120" height="80" as="geometry" />
        </mxCell>
        <mxCell id="sNdHplppjl8J4mJ22e9B-16" value="로그인" style="ellipse;whiteSpace=wrap;html=1;" parent="1" vertex="1">
          <mxGeometry x="40" y="206" width="120" height="80" as="geometry" />
        </mxCell>
        <mxCell id="sNdHplppjl8J4mJ22e9B-17" value="회원가입" style="ellipse;whiteSpace=wrap;html=1;" parent="1" vertex="1">
          <mxGeometry x="160" y="246" width="120" height="80" as="geometry" />
        </mxCell>
        <mxCell id="sNdHplppjl8J4mJ22e9B-18" value="캠핑장 상세보기" style="ellipse;whiteSpace=wrap;html=1;" parent="1" vertex="1">
          <mxGeometry x="410" y="140" width="120" height="80" as="geometry" />
        </mxCell>
        <mxCell id="sNdHplppjl8J4mJ22e9B-19" value="캠핑장 리뷰보기" style="ellipse;whiteSpace=wrap;html=1;" parent="1" vertex="1">
          <mxGeometry x="580" y="140" width="120" height="80" as="geometry" />
        </mxCell>
        <mxCell id="sNdHplppjl8J4mJ22e9B-21" value="캠핑장 정보관리" style="ellipse;whiteSpace=wrap;html=1;" parent="1" vertex="1">
          <mxGeometry x="680" y="270" width="120" height="80" as="geometry" />
        </mxCell>
        <mxCell id="sNdHplppjl8J4mJ22e9B-22" value="캠핑장 정보 삭제" style="ellipse;whiteSpace=wrap;html=1;" parent="1" vertex="1">
          <mxGeometry x="760" y="410" width="120" height="80" as="geometry" />
        </mxCell>
        <mxCell id="sNdHplppjl8J4mJ22e9B-23" value="캠핑장 정보 수정" style="ellipse;whiteSpace=wrap;html=1;" parent="1" vertex="1">
          <mxGeometry x="620" y="410" width="120" height="80" as="geometry" />
        </mxCell>
        <mxCell id="sNdHplppjl8J4mJ22e9B-24" value="리뷰관리" style="ellipse;whiteSpace=wrap;html=1;" parent="1" vertex="1">
          <mxGeometry x="890" y="710" width="120" height="80" as="geometry" />
        </mxCell>
        <mxCell id="sNdHplppjl8J4mJ22e9B-25" value="예약리스트" style="ellipse;whiteSpace=wrap;html=1;" parent="1" vertex="1">
          <mxGeometry x="960" y="170" width="120" height="80" as="geometry" />
        </mxCell>
        <mxCell id="sNdHplppjl8J4mJ22e9B-26" value="예약상세내역확인" style="ellipse;whiteSpace=wrap;html=1;" parent="1" vertex="1">
          <mxGeometry x="860" y="270" width="120" height="80" as="geometry" />
        </mxCell>
        <mxCell id="sNdHplppjl8J4mJ22e9B-27" value="결제" style="ellipse;whiteSpace=wrap;html=1;" parent="1" vertex="1">
          <mxGeometry x="160" y="636" width="120" height="80" as="geometry" />
        </mxCell>
        <mxCell id="sNdHplppjl8J4mJ22e9B-29" value="장바구니" style="ellipse;whiteSpace=wrap;html=1;" parent="1" vertex="1">
          <mxGeometry x="40" y="676" width="120" height="80" as="geometry" />
        </mxCell>
        <mxCell id="sNdHplppjl8J4mJ22e9B-32" value="리뷰수정" style="ellipse;whiteSpace=wrap;html=1;" parent="1" vertex="1">
          <mxGeometry x="290" y="486" width="120" height="80" as="geometry" />
        </mxCell>
        <mxCell id="sNdHplppjl8J4mJ22e9B-38" value="" style="endArrow=classic;html=1;rounded=0;" parent="1" target="sNdHplppjl8J4mJ22e9B-16" edge="1">
          <mxGeometry width="50" height="50" relative="1" as="geometry">
            <mxPoint x="60" y="486" as="sourcePoint" />
            <mxPoint x="670" y="436" as="targetPoint" />
          </mxGeometry>
        </mxCell>
        <mxCell id="sNdHplppjl8J4mJ22e9B-39" value="" style="endArrow=classic;html=1;rounded=0;entryX=0.269;entryY=0.94;entryDx=0;entryDy=0;entryPerimeter=0;" parent="1" target="sNdHplppjl8J4mJ22e9B-17" edge="1">
          <mxGeometry width="50" height="50" relative="1" as="geometry">
            <mxPoint x="60" y="486" as="sourcePoint" />
            <mxPoint x="670" y="436" as="targetPoint" />
          </mxGeometry>
        </mxCell>
        <mxCell id="sNdHplppjl8J4mJ22e9B-40" value="" style="endArrow=classic;html=1;rounded=0;entryX=0;entryY=1;entryDx=0;entryDy=0;" parent="1" target="sNdHplppjl8J4mJ22e9B-13" edge="1">
          <mxGeometry width="50" height="50" relative="1" as="geometry">
            <mxPoint x="60" y="486" as="sourcePoint" />
            <mxPoint x="192.2800000000002" y="301.20000000000005" as="targetPoint" />
          </mxGeometry>
        </mxCell>
        <mxCell id="sNdHplppjl8J4mJ22e9B-41" value="" style="endArrow=classic;html=1;rounded=0;entryX=0.024;entryY=0.675;entryDx=0;entryDy=0;entryPerimeter=0;" parent="1" target="sNdHplppjl8J4mJ22e9B-14" edge="1">
          <mxGeometry width="50" height="50" relative="1" as="geometry">
            <mxPoint x="60" y="486" as="sourcePoint" />
            <mxPoint x="256.9451585022948" y="373.85901508675033" as="targetPoint" />
          </mxGeometry>
        </mxCell>
        <mxCell id="sNdHplppjl8J4mJ22e9B-42" value="" style="endArrow=classic;html=1;rounded=0;entryX=0;entryY=0.5;entryDx=0;entryDy=0;" parent="1" target="sNdHplppjl8J4mJ22e9B-32" edge="1">
          <mxGeometry width="50" height="50" relative="1" as="geometry">
            <mxPoint x="60" y="486" as="sourcePoint" />
            <mxPoint x="302.8800000000001" y="440" as="targetPoint" />
          </mxGeometry>
        </mxCell>
        <mxCell id="sNdHplppjl8J4mJ22e9B-43" value="" style="endArrow=classic;html=1;rounded=0;" parent="1" target="sNdHplppjl8J4mJ22e9B-15" edge="1">
          <mxGeometry width="50" height="50" relative="1" as="geometry">
            <mxPoint x="60" y="486" as="sourcePoint" />
            <mxPoint x="329.9999999999957" y="516" as="targetPoint" />
          </mxGeometry>
        </mxCell>
        <mxCell id="sNdHplppjl8J4mJ22e9B-45" value="" style="endArrow=classic;html=1;rounded=0;entryX=0.348;entryY=0.014;entryDx=0;entryDy=0;entryPerimeter=0;" parent="1" target="sNdHplppjl8J4mJ22e9B-27" edge="1">
          <mxGeometry width="50" height="50" relative="1" as="geometry">
            <mxPoint x="60" y="486" as="sourcePoint" />
            <mxPoint x="180" y="716" as="targetPoint" />
          </mxGeometry>
        </mxCell>
        <mxCell id="sNdHplppjl8J4mJ22e9B-46" value="" style="endArrow=classic;html=1;rounded=0;entryX=0.406;entryY=-0.024;entryDx=0;entryDy=0;entryPerimeter=0;" parent="1" target="sNdHplppjl8J4mJ22e9B-29" edge="1">
          <mxGeometry width="50" height="50" relative="1" as="geometry">
            <mxPoint x="60" y="486" as="sourcePoint" />
            <mxPoint x="192.2800000000002" y="716.4799999999998" as="targetPoint" />
          </mxGeometry>
        </mxCell>
        <mxCell id="sNdHplppjl8J4mJ22e9B-55" value="" style="endArrow=classic;html=1;rounded=0;" parent="1" target="sNdHplppjl8J4mJ22e9B-24" edge="1">
          <mxGeometry width="50" height="50" relative="1" as="geometry">
            <mxPoint x="1040" y="490" as="sourcePoint" />
            <mxPoint x="945.2799999999997" y="676.9599999999998" as="targetPoint" />
          </mxGeometry>
        </mxCell>
        <mxCell id="sNdHplppjl8J4mJ22e9B-56" value="" style="endArrow=classic;html=1;rounded=0;entryX=1;entryY=1;entryDx=0;entryDy=0;" parent="1" target="sNdHplppjl8J4mJ22e9B-21" edge="1">
          <mxGeometry width="50" height="50" relative="1" as="geometry">
            <mxPoint x="1040" y="490" as="sourcePoint" />
            <mxPoint x="779.4000000000001" y="469.91999999999985" as="targetPoint" />
          </mxGeometry>
        </mxCell>
        <mxCell id="sNdHplppjl8J4mJ22e9B-58" value="" style="endArrow=classic;html=1;rounded=0;entryX=0.578;entryY=1.021;entryDx=0;entryDy=0;entryPerimeter=0;" parent="1" target="sNdHplppjl8J4mJ22e9B-25" edge="1">
          <mxGeometry width="50" height="50" relative="1" as="geometry">
            <mxPoint x="1040" y="490" as="sourcePoint" />
            <mxPoint x="936.9999999999995" y="327.5600000000002" as="targetPoint" />
          </mxGeometry>
        </mxCell>
        <mxCell id="sNdHplppjl8J4mJ22e9B-59" value="캠핑장 정보 등록" style="ellipse;whiteSpace=wrap;html=1;" parent="1" vertex="1">
          <mxGeometry x="480" y="410" width="120" height="80" as="geometry" />
        </mxCell>
        <mxCell id="sNdHplppjl8J4mJ22e9B-61" value="" style="edgeStyle=elbowEdgeStyle;elbow=vertical;endArrow=classic;html=1;rounded=0;exitX=0.441;exitY=0.013;exitDx=0;exitDy=0;entryX=0.5;entryY=1;entryDx=0;entryDy=0;exitPerimeter=0;" parent="1" source="sNdHplppjl8J4mJ22e9B-22" target="sNdHplppjl8J4mJ22e9B-21" edge="1">
          <mxGeometry width="50" height="50" relative="1" as="geometry">
            <mxPoint x="620" y="510" as="sourcePoint" />
            <mxPoint x="670" y="460" as="targetPoint" />
          </mxGeometry>
        </mxCell>
        <mxCell id="sNdHplppjl8J4mJ22e9B-62" value="" style="edgeStyle=elbowEdgeStyle;elbow=vertical;endArrow=classic;html=1;rounded=0;exitX=0.5;exitY=0;exitDx=0;exitDy=0;" parent="1" source="sNdHplppjl8J4mJ22e9B-23" target="sNdHplppjl8J4mJ22e9B-21" edge="1">
          <mxGeometry width="50" height="50" relative="1" as="geometry">
            <mxPoint x="620" y="510" as="sourcePoint" />
            <mxPoint x="670" y="460" as="targetPoint" />
          </mxGeometry>
        </mxCell>
        <mxCell id="sNdHplppjl8J4mJ22e9B-63" value="호실 정보관리" style="ellipse;whiteSpace=wrap;html=1;" parent="1" vertex="1">
          <mxGeometry x="680" y="514" width="120" height="80" as="geometry" />
        </mxCell>
        <mxCell id="sNdHplppjl8J4mJ22e9B-64" value="" style="edgeStyle=elbowEdgeStyle;elbow=vertical;endArrow=classic;html=1;rounded=0;exitX=0.5;exitY=0;exitDx=0;exitDy=0;entryX=0.5;entryY=1;entryDx=0;entryDy=0;" parent="1" source="sNdHplppjl8J4mJ22e9B-59" target="sNdHplppjl8J4mJ22e9B-21" edge="1">
          <mxGeometry width="50" height="50" relative="1" as="geometry">
            <mxPoint x="620" y="510" as="sourcePoint" />
            <mxPoint x="670" y="460" as="targetPoint" />
          </mxGeometry>
        </mxCell>
        <mxCell id="sNdHplppjl8J4mJ22e9B-65" value="회원관리" style="ellipse;whiteSpace=wrap;html=1;" parent="1" vertex="1">
          <mxGeometry x="1010" y="650" width="120" height="80" as="geometry" />
        </mxCell>
        <mxCell id="sNdHplppjl8J4mJ22e9B-66" value="" style="endArrow=classic;html=1;rounded=0;entryX=0.5;entryY=0;entryDx=0;entryDy=0;" parent="1" target="sNdHplppjl8J4mJ22e9B-65" edge="1">
          <mxGeometry width="50" height="50" relative="1" as="geometry">
            <mxPoint x="1040" y="490" as="sourcePoint" />
            <mxPoint x="1110" y="640" as="targetPoint" />
          </mxGeometry>
        </mxCell>
        <mxCell id="sNdHplppjl8J4mJ22e9B-67" value="" style="edgeStyle=elbowEdgeStyle;elbow=vertical;endArrow=classic;html=1;rounded=0;exitX=0.5;exitY=0;exitDx=0;exitDy=0;entryX=0;entryY=1;entryDx=0;entryDy=0;" parent="1" source="sNdHplppjl8J4mJ22e9B-26" target="sNdHplppjl8J4mJ22e9B-25" edge="1">
          <mxGeometry width="50" height="50" relative="1" as="geometry">
            <mxPoint x="540" y="520" as="sourcePoint" />
            <mxPoint x="590" y="470" as="targetPoint" />
          </mxGeometry>
        </mxCell>
        <mxCell id="sNdHplppjl8J4mJ22e9B-68" value="" style="endArrow=classic;html=1;rounded=0;entryX=0.984;entryY=0.333;entryDx=0;entryDy=0;entryPerimeter=0;" parent="1" target="sNdHplppjl8J4mJ22e9B-63" edge="1">
          <mxGeometry width="50" height="50" relative="1" as="geometry">
            <mxPoint x="1040" y="490" as="sourcePoint" />
            <mxPoint x="590" y="470" as="targetPoint" />
          </mxGeometry>
        </mxCell>
        <mxCell id="sNdHplppjl8J4mJ22e9B-69" value="호실 정보 등록" style="ellipse;whiteSpace=wrap;html=1;" parent="1" vertex="1">
          <mxGeometry x="510" y="630" width="120" height="80" as="geometry" />
        </mxCell>
        <mxCell id="sNdHplppjl8J4mJ22e9B-70" value="호실 정보 수정" style="ellipse;whiteSpace=wrap;html=1;fontStyle=0" parent="1" vertex="1">
          <mxGeometry x="650" y="630" width="120" height="80" as="geometry" />
        </mxCell>
        <mxCell id="sNdHplppjl8J4mJ22e9B-71" value="호실 정보 삭제" style="ellipse;whiteSpace=wrap;html=1;" parent="1" vertex="1">
          <mxGeometry x="790" y="630" width="120" height="80" as="geometry" />
        </mxCell>
        <mxCell id="sNdHplppjl8J4mJ22e9B-72" value="" style="edgeStyle=elbowEdgeStyle;elbow=vertical;endArrow=classic;html=1;rounded=0;exitX=0.5;exitY=0;exitDx=0;exitDy=0;entryX=0.5;entryY=1;entryDx=0;entryDy=0;" parent="1" source="sNdHplppjl8J4mJ22e9B-69" target="sNdHplppjl8J4mJ22e9B-63" edge="1">
          <mxGeometry width="50" height="50" relative="1" as="geometry">
            <mxPoint x="510" y="540" as="sourcePoint" />
            <mxPoint x="660" y="590" as="targetPoint" />
          </mxGeometry>
        </mxCell>
        <mxCell id="sNdHplppjl8J4mJ22e9B-73" value="" style="edgeStyle=elbowEdgeStyle;elbow=vertical;endArrow=classic;html=1;rounded=0;" parent="1" source="sNdHplppjl8J4mJ22e9B-70" target="sNdHplppjl8J4mJ22e9B-63" edge="1">
          <mxGeometry width="50" height="50" relative="1" as="geometry">
            <mxPoint x="510" y="540" as="sourcePoint" />
            <mxPoint x="660" y="570" as="targetPoint" />
          </mxGeometry>
        </mxCell>
        <mxCell id="sNdHplppjl8J4mJ22e9B-74" value="" style="edgeStyle=elbowEdgeStyle;elbow=vertical;endArrow=classic;html=1;rounded=0;entryX=0.5;entryY=1;entryDx=0;entryDy=0;" parent="1" source="sNdHplppjl8J4mJ22e9B-71" target="sNdHplppjl8J4mJ22e9B-63" edge="1">
          <mxGeometry width="50" height="50" relative="1" as="geometry">
            <mxPoint x="510" y="540" as="sourcePoint" />
            <mxPoint x="660" y="590" as="targetPoint" />
          </mxGeometry>
        </mxCell>
        <mxCell id="sNdHplppjl8J4mJ22e9B-75" value="캠핑장 리스트" style="ellipse;whiteSpace=wrap;html=1;" parent="1" vertex="1">
          <mxGeometry x="495" y="30" width="120" height="80" as="geometry" />
        </mxCell>
        <mxCell id="sNdHplppjl8J4mJ22e9B-77" value="" style="edgeStyle=elbowEdgeStyle;elbow=vertical;endArrow=classic;html=1;rounded=0;exitX=0.5;exitY=0;exitDx=0;exitDy=0;entryX=0.5;entryY=1;entryDx=0;entryDy=0;" parent="1" source="sNdHplppjl8J4mJ22e9B-18" edge="1">
          <mxGeometry width="50" height="50" relative="1" as="geometry">
            <mxPoint x="480" y="310" as="sourcePoint" />
            <mxPoint x="555" y="110" as="targetPoint" />
          </mxGeometry>
        </mxCell>
        <mxCell id="sNdHplppjl8J4mJ22e9B-78" value="" style="edgeStyle=elbowEdgeStyle;elbow=vertical;endArrow=classic;html=1;rounded=0;exitX=0.5;exitY=0;exitDx=0;exitDy=0;entryX=0.5;entryY=1;entryDx=0;entryDy=0;" parent="1" source="sNdHplppjl8J4mJ22e9B-19" edge="1">
          <mxGeometry width="50" height="50" relative="1" as="geometry">
            <mxPoint x="480" y="310" as="sourcePoint" />
            <mxPoint x="555" y="110" as="targetPoint" />
          </mxGeometry>
        </mxCell>
      </root>
    </mxGraphModel>
  </diagram>
</mxfile>
